<?xml version="1.0" encoding="UTF-8"?>
<svg version="1.1" xmlns="http://www.w3.org/2000/svg" width="512" height="512">
<path d="M0 0 C0.68964844 0.41378906 1.37929688 0.82757813 2.08984375 1.25390625 C3.23259766 1.89005859 3.23259766 1.89005859 4.3984375 2.5390625 C14.72242651 8.78916714 20.17381039 17.00669417 24.08984375 28.25390625 C24.46367187 29.28128906 24.8375 30.30867188 25.22265625 31.3671875 C26.08984375 34.25390625 26.08984375 34.25390625 26.08984375 38.25390625 C27.13648445 38.23725166 27.13648445 38.23725166 28.20426941 38.22026062 C34.83707579 38.11933826 41.46966246 38.04358079 48.10306835 37.99484539 C51.51200267 37.96894576 54.92029339 37.93391868 58.32885742 37.87670898 C62.26342588 37.81109741 66.19774994 37.78756358 70.1328125 37.765625 C71.93518623 37.72691536 71.93518623 37.72691536 73.77397156 37.68742371 C84.94600236 37.68378718 95.31767188 40.49427665 103.5078125 48.42578125 C108.22725075 53.87935434 111.23411036 60.0165315 111.08984375 67.25390625 C111.6542366 67.2450238 112.21862946 67.23614136 112.80012512 67.22698975 C118.72203348 67.13787865 124.64374863 67.07791013 130.56616211 67.03417969 C132.77066801 67.01417539 134.97512161 66.98696303 137.17944336 66.95214844 C140.36455258 66.90313567 143.54895491 66.88082498 146.734375 66.86328125 C147.70566849 66.84263611 148.67696198 66.82199097 149.6776886 66.80072021 C157.83327695 66.79809934 165.90806718 68.5294744 172.52734375 73.56640625 C182.13193695 83.6395162 182.53247408 96.06383626 182.47079468 109.27772522 C182.47425538 110.89686648 182.47902272 112.51600539 182.48497641 114.13513941 C182.4974592 118.56465202 182.49132847 122.99396985 182.48201776 127.42348301 C182.47521649 132.2081317 182.4857138 136.99274743 182.49395752 141.77738953 C182.50728523 151.14242485 182.50442148 160.50738797 182.4957196 169.8724261 C182.48894009 177.48414964 182.48802749 185.09585297 182.49129105 192.70757866 C182.49175075 193.79156686 182.49221044 194.87555506 182.49268407 195.99239139 C182.49364326 198.19458847 182.4946159 200.39678555 182.49560185 202.59898262 C182.50415282 223.24019803 182.49432598 243.88137344 182.47820075 264.52258229 C182.46479594 282.22967449 182.46712758 299.93670769 182.48095703 317.64379883 C182.49701473 338.21350734 182.50333087 358.78318082 182.49412024 379.35289472 C182.4931646 381.54661301 182.49222149 383.74033131 182.49129105 385.93404961 C182.49082822 387.01336454 182.49036539 388.09267948 182.48988854 389.20470094 C182.48729937 396.80687139 182.49166805 404.40901959 182.49872971 412.0111866 C182.50714692 421.27618072 182.50485979 430.54109859 182.48888747 439.80608398 C182.48100807 444.53225801 182.4779076 449.25830494 182.48783493 453.984478 C182.49678899 458.31277804 182.49183726 462.64083345 182.47590227 466.96911138 C182.47255752 468.53288981 182.47424168 470.09668901 182.48152964 471.66045404 C182.53096441 483.15105655 181.91502137 493.15014995 173.55859375 501.84765625 C165.20483725 509.59386682 156.55448521 509.69323203 145.64199829 509.64831543 C144.16966232 509.65320853 142.69733019 509.65940027 141.22500455 509.66677332 C137.19196557 509.68314283 133.15912246 509.68086104 129.12606192 509.67539835 C124.7714814 509.67272448 120.41695266 509.68726662 116.06239319 509.69949341 C107.5363039 509.72053415 99.01028264 509.72508905 90.48417045 509.72330552 C83.55318344 509.72199727 76.62221762 509.72580527 69.69123459 509.73323059 C67.69384778 509.73532981 65.69646096 509.73742741 63.69907415 509.73952341 C62.20778751 509.7410887 62.20778751 509.7410887 60.68637387 509.74268562 C41.88928661 509.76158235 23.09223838 509.76053946 4.29514556 509.75371629 C-12.89537858 509.74814064 -30.0857537 509.76896822 -47.27624302 509.80207676 C-64.93413118 509.83582115 -82.59194798 509.8509812 -100.24986899 509.84635973 C-110.16077887 509.84411588 -120.071551 509.84934599 -129.98243332 509.87425232 C-138.41964489 509.89527503 -146.85664316 509.89884773 -155.29386352 509.87995273 C-159.59696705 509.87080107 -163.89967299 509.86963424 -168.20274544 509.89030838 C-172.14583388 509.90904317 -176.08819978 509.90448751 -180.03126092 509.88176256 C-181.45380242 509.87758308 -182.87639958 509.88175498 -184.29888217 509.8953585 C-195.08633887 509.99145457 -202.75512106 508.21134601 -210.84765625 500.87890625 C-216.78009845 494.45790999 -218.031472 487.08059769 -218.04437733 478.55297089 C-218.04672956 477.88925393 -218.04908179 477.22553698 -218.0515053 476.5417074 C-218.05817129 474.31388054 -218.0577378 472.08611234 -218.05732727 469.85827637 C-218.0606274 468.24630345 -218.06435328 466.63433136 -218.06846875 465.02236032 C-218.07848004 460.58933686 -218.08220415 456.15632694 -218.08485806 451.72329378 C-218.08876371 446.94325975 -218.09834189 442.16323642 -218.10707092 437.38320923 C-218.12682828 425.83748625 -218.13690076 414.29176241 -218.14579871 402.74602675 C-218.15018293 397.3074753 -218.15554941 391.86892483 -218.16078758 386.43037415 C-218.17779937 368.34873405 -218.19229313 350.26709456 -218.19953632 332.18544769 C-218.20144618 327.49374897 -218.20336652 322.80205026 -218.20532227 318.11035156 C-218.20580601 316.94426812 -218.20628975 315.77818467 -218.20678815 314.57676536 C-218.21508691 295.69064493 -218.24042148 276.80458788 -218.27290294 257.91849512 C-218.30598677 238.52386995 -218.3239863 219.12927697 -218.32718056 199.73462343 C-218.32934446 188.84716646 -218.33807559 177.95980189 -218.36364174 167.07237244 C-218.3853668 157.79931753 -218.39339025 148.52637748 -218.38367496 139.25330001 C-218.37913548 134.52459273 -218.38099602 129.79612233 -218.4004364 125.06744766 C-218.41810607 120.73190799 -218.41703966 116.39677735 -218.40153911 112.0612331 C-218.39916879 110.49924543 -218.40345647 108.93722915 -218.41536776 107.37528509 C-218.48960715 96.99044776 -218.17341592 85.42211704 -211.66015625 76.75390625 C-203.10827442 68.97946822 -195.20202015 66.94333252 -183.82421875 67.05859375 C-182.23883804 67.06283859 -182.23883804 67.06283859 -180.62142944 67.06716919 C-177.25922124 67.07832775 -173.89728339 67.10342466 -170.53515625 67.12890625 C-168.25000386 67.13894163 -165.96484727 67.1480665 -163.6796875 67.15625 C-158.08975214 67.17825293 -152.49997352 67.21168752 -146.91015625 67.25390625 C-146.94206055 66.10510986 -146.94206055 66.10510986 -146.97460938 64.93310547 C-146.81089952 58.12798449 -142.14655169 50.95228189 -137.34765625 46.31640625 C-127.83741965 39.17152312 -117.55997817 37.51634423 -105.953125 37.765625 C-104.04966057 37.77623711 -104.04966057 37.77623711 -102.10774231 37.7870636 C-98.78136325 37.81008605 -95.45680186 37.85476155 -92.13092041 37.9105835 C-88.71829686 37.9623163 -85.30548321 37.98469113 -81.89257812 38.00976562 C-75.23128219 38.06452673 -68.57082376 38.14791891 -61.91015625 38.25390625 C-61.7608667 37.49110352 -61.61157715 36.72830078 -61.45776367 35.94238281 C-58.60895064 21.95614601 -53.4302409 11.8793007 -41.91015625 3.25390625 C-39.32283966 1.66569916 -36.73635741 0.35814732 -33.91015625 -0.74609375 C-33.04261719 -1.101875 -32.17507812 -1.45765625 -31.28125 -1.82421875 C-21.84337984 -4.40514269 -8.81886275 -4.44817858 0 0 Z " fill="#FDFDFD" transform="translate(273.91015625,2.74609375)"/>
<path d="M0 0 C1.07911652 0.0028299 2.15823303 0.00565979 3.27005005 0.00857544 C6.70358549 0.0197359 10.13685641 0.0448332 13.5703125 0.0703125 C15.90364206 0.08034763 18.23697572 0.08947255 20.5703125 0.09765625 C26.27882879 0.11795681 31.98677587 0.15711411 37.6953125 0.1953125 C37.6953125 14.7153125 37.6953125 29.2353125 37.6953125 44.1953125 C31.7553125 44.5253125 25.8153125 44.8553125 19.6953125 45.1953125 C13.05733131 48.32922033 13.05733131 48.32922033 9.6953125 54.1953125 C9.11457656 58.66067703 9.15171975 63.08994748 9.1806488 67.58763123 C9.17532174 68.96963637 9.16825513 70.35163572 9.15960175 71.73362404 C9.1409683 75.52620553 9.14728163 79.31839672 9.15775478 83.11099446 C9.16474486 87.20312031 9.14875032 91.29516582 9.13575745 95.38726807 C9.11410887 103.40197024 9.11424654 111.41653048 9.12238299 119.43125229 C9.12868145 125.94517501 9.12754737 132.45905632 9.12111092 138.97297859 C9.12020926 139.89989061 9.11930761 140.82680262 9.11837863 141.78180288 C9.11652744 143.66478857 9.11466488 145.54777425 9.11279107 147.43075991 C9.09620956 165.09085158 9.10493474 182.75086338 9.12177665 200.41095025 C9.13647343 216.56899269 9.12184614 232.72684917 9.09300648 248.88486766 C9.06361633 265.47482378 9.05263912 282.06469406 9.06218868 298.65467507 C9.06321124 300.53106024 9.06420585 302.40744544 9.0651722 304.28383064 C9.06564859 305.20705267 9.06612498 306.1302747 9.0666158 307.08147315 C9.06878046 313.58700169 9.05897307 320.092449 9.04440117 326.59795952 C9.02688854 334.52697586 9.02697973 342.45575512 9.04975282 350.3847621 C9.06090493 354.43027355 9.06403597 358.47536714 9.04545212 362.52086067 C9.02865442 366.22519518 9.03498769 369.92874716 9.05966891 373.6330309 C9.06686773 375.60593768 9.04951419 377.57888702 9.03125757 379.55172247 C9.10736621 386.76415904 9.57181207 390.94081958 14.6953125 396.1953125 C17.78910451 398.12892614 20.14416253 398.44625722 23.76504421 398.44978809 C24.79404321 398.45562029 25.82304221 398.46145248 26.883223 398.46746141 C28.01209983 398.46368208 29.14097667 398.45990276 30.30406189 398.45600891 C31.50451615 398.45983446 32.70497042 398.46366001 33.94180208 398.46760148 C37.27524974 398.47614563 40.60847726 398.47569372 43.94191873 398.47142088 C47.53639987 398.46895794 51.1308549 398.47796243 54.72532654 398.48545837 C61.76770371 398.49821934 68.81004278 398.49999734 75.85242956 398.49765811 C81.57550366 398.49587639 87.29856616 398.49762145 93.02163887 398.50188255 C93.8356095 398.50247774 94.64958013 398.50307293 95.48821654 398.50368616 C97.14169975 398.50489788 98.79518296 398.50611202 100.44866616 398.50732853 C115.96121781 398.5182094 131.47374772 398.51603896 146.9863006 398.50994369 C161.18318796 398.50477374 175.38000672 398.51603105 189.57688051 398.53504191 C204.14854769 398.55440531 218.72018241 398.56267896 233.29186255 398.55891865 C241.47503864 398.55700437 249.65815633 398.55951626 257.84132195 398.57363319 C264.80750467 398.58552889 271.77359305 398.58697229 278.73977702 398.57484303 C282.29482838 398.56894161 285.84970701 398.56788953 289.40474701 398.57984543 C293.25644408 398.59264863 297.10787752 398.58226978 300.95957947 398.5695343 C302.08622558 398.57690859 303.21287169 398.58428287 304.3736586 398.59188062 C305.40526534 398.58467408 306.43687209 398.57746753 307.49973965 398.57004261 C308.83329263 398.57012513 308.83329263 398.57012513 310.19378608 398.57020932 C314.69132605 397.89617549 317.18122322 395.83656576 319.97606659 392.35039616 C322.81547796 386.86132106 322.24541553 380.73991177 322.20324707 374.713974 C322.20785917 373.33451876 322.21421416 371.95506843 322.22215605 370.57562834 C322.23883018 366.7947674 322.23061197 363.01431112 322.21821117 359.23344886 C322.20915517 355.1522734 322.22313307 351.07116717 322.23413086 346.99000549 C322.25191433 338.99916362 322.24807702 331.00847206 322.2364803 323.01762431 C322.2274462 316.52374121 322.22622187 310.02990023 322.23057556 303.53601265 C322.23149496 302.14957782 322.23149496 302.14957782 322.23243293 300.7351342 C322.23371183 298.85746132 322.23500869 296.97978844 322.2363233 295.10211558 C322.24772843 277.49688838 322.23461611 259.89174451 322.21312183 242.28653098 C322.19524795 227.17885329 322.19835748 212.07129852 322.21679688 196.96362305 C322.23819966 179.41978082 322.24663292 161.8760116 322.23434782 144.33215815 C322.23307362 142.46170431 322.23181614 140.59125045 322.23057556 138.72079659 C322.22995846 137.80049294 322.22934136 136.8801893 322.22870556 135.93199767 C322.2252511 129.44503871 322.231083 122.95812603 322.24049377 116.47117424 C322.25170842 108.56706316 322.24868486 100.66311098 322.2273708 92.75901812 C322.2168536 88.72583149 322.21274986 84.69290989 322.22596741 80.65972519 C322.23788333 76.96791112 322.23134254 73.27660783 322.2100572 69.58484013 C322.20346978 67.61622156 322.21653439 65.64756757 322.23028612 63.67898601 C322.1864855 58.76150516 322.08475799 55.0862447 320.10106659 50.54816532 C312.55658515 43.16958306 304.06104576 44.80506152 293.6953125 44.1953125 C293.6953125 29.6753125 293.6953125 15.1553125 293.6953125 0.1953125 C300.33054369 0.10304973 306.96351334 0.02353971 313.59887695 -0.02441406 C315.85188373 -0.04442214 318.10483929 -0.07163741 320.35766602 -0.10644531 C323.61227117 -0.15544092 326.86618467 -0.17776506 330.12109375 -0.1953125 C331.61084465 -0.22628021 331.61084465 -0.22628021 333.13069153 -0.25787354 C341.35127453 -0.26046021 349.45500528 1.42911287 356.1328125 6.5078125 C365.7374057 16.58092245 366.13794283 29.00524251 366.07626343 42.21913147 C366.07972413 43.83827273 366.08449147 45.45741164 366.09044516 47.07654566 C366.10292795 51.50605827 366.09679722 55.9353761 366.08748651 60.36488926 C366.08068524 65.14953795 366.09118255 69.93415368 366.09942627 74.71879578 C366.11275398 84.0838311 366.10989023 93.44879422 366.10118835 102.81383235 C366.09440884 110.42555589 366.09349624 118.03725922 366.0967598 125.64898491 C366.0972195 126.73297311 366.09767919 127.81696131 366.09815282 128.93379764 C366.09911201 131.13599472 366.10008465 133.3381918 366.1010706 135.54038887 C366.10962157 156.18160428 366.09979473 176.82277969 366.0836695 197.46398854 C366.07026469 215.17108074 366.07259633 232.87811394 366.08642578 250.58520508 C366.10248348 271.15491359 366.10879962 291.72458707 366.09958899 312.29430097 C366.09863335 314.48801926 366.09769024 316.68173756 366.0967598 318.87545586 C366.09629697 319.95477079 366.09583414 321.03408573 366.09535729 322.14610719 C366.09276812 329.74827764 366.0971368 337.35042584 366.10419846 344.95259285 C366.11261567 354.21758697 366.11032854 363.48250484 366.09435622 372.74749023 C366.08647682 377.47366426 366.08337635 382.19971119 366.09330368 386.92588425 C366.10225774 391.25418429 366.09730601 395.5822397 366.08137102 399.91051763 C366.07802627 401.47429606 366.07971043 403.03809526 366.08699839 404.60186029 C366.13643316 416.0924628 365.52049012 426.0915562 357.1640625 434.7890625 C348.810306 442.53527307 340.15995396 442.63463828 329.24746704 442.58972168 C327.77513107 442.59461478 326.30279894 442.60080652 324.8304733 442.60817957 C320.79743432 442.62454908 316.76459121 442.62226729 312.73153067 442.6168046 C308.37695015 442.61413073 304.02242141 442.62867287 299.66786194 442.64089966 C291.14177265 442.6619404 282.61575139 442.6664953 274.0896392 442.66471177 C267.15865219 442.66340352 260.22768637 442.66721152 253.29670334 442.67463684 C251.29931653 442.67673606 249.30192971 442.67883366 247.3045429 442.68092966 C245.81325626 442.68249495 245.81325626 442.68249495 244.29184262 442.68409187 C225.49475536 442.7029886 206.69770713 442.70194571 187.90061431 442.69512254 C170.71009017 442.68954689 153.51971505 442.71037447 136.32922573 442.74348301 C118.67133757 442.7772274 101.01352077 442.79238745 83.35559976 442.78776598 C73.44468988 442.78552213 63.53391775 442.79075224 53.62303543 442.81565857 C45.18582386 442.83668128 36.74882559 442.84025398 28.31160523 442.82135898 C24.0085017 442.81220732 19.70579576 442.81104049 15.40272331 442.83171463 C11.45963487 442.85044942 7.51726897 442.84589376 3.57420783 442.82316881 C2.15166633 442.81898933 0.72906917 442.82316123 -0.69341342 442.83676475 C-11.48087012 442.93286082 -19.14965231 441.15275226 -27.2421875 433.8203125 C-33.1746297 427.39931624 -34.42600325 420.02200394 -34.43890858 411.49437714 C-34.44126081 410.83066018 -34.44361304 410.16694323 -34.44603655 409.48311365 C-34.45270254 407.25528679 -34.45226905 405.02751859 -34.45185852 402.79968262 C-34.45515865 401.1877097 -34.45888453 399.57573761 -34.463 397.96376657 C-34.47301129 393.53074311 -34.4767354 389.09773319 -34.47938931 384.66470003 C-34.48329496 379.884666 -34.49287314 375.10464267 -34.50160217 370.32461548 C-34.52135953 358.7788925 -34.53143201 347.23316866 -34.54032996 335.687433 C-34.54471418 330.24888155 -34.55008066 324.81033108 -34.55531883 319.3717804 C-34.57233062 301.2901403 -34.58682438 283.20850081 -34.59406757 265.12685394 C-34.59597743 260.43515522 -34.59789777 255.74345651 -34.59985352 251.05175781 C-34.60033726 249.88567437 -34.600821 248.71959092 -34.6013194 247.51817161 C-34.60961816 228.63205118 -34.63495273 209.74599413 -34.66743419 190.85990137 C-34.70051802 171.4652762 -34.71851755 152.07068322 -34.72171181 132.67602968 C-34.72387571 121.78857271 -34.73260684 110.90120814 -34.75817299 100.01377869 C-34.77989805 90.74072378 -34.7879215 81.46778373 -34.77820621 72.19470626 C-34.77366673 67.46599898 -34.77552727 62.73752858 -34.79496765 58.00885391 C-34.81263732 53.67331424 -34.81157091 49.3381836 -34.79607036 45.00263935 C-34.79370004 43.44065168 -34.79798772 41.8786354 -34.80989901 40.31669134 C-34.8841384 29.93185401 -34.56794717 18.36352329 -28.0546875 9.6953125 C-19.42673748 1.85172157 -11.47157979 -0.11376902 0 0 Z " fill="#C1694F" transform="translate(90.3046875,69.8046875)"/>
<path d="M0 0 C0.68964844 0.41378906 1.37929688 0.82757813 2.08984375 1.25390625 C3.23259766 1.89005859 3.23259766 1.89005859 4.3984375 2.5390625 C14.72242651 8.78916714 20.17381039 17.00669417 24.08984375 28.25390625 C24.46367187 29.28128906 24.8375 30.30867188 25.22265625 31.3671875 C26.08984375 34.25390625 26.08984375 34.25390625 26.08984375 38.25390625 C27.13648445 38.23725166 27.13648445 38.23725166 28.20426941 38.22026062 C34.83707579 38.11933826 41.46966246 38.04358079 48.10306835 37.99484539 C51.51200267 37.96894576 54.92029339 37.93391868 58.32885742 37.87670898 C62.26342588 37.81109741 66.19774994 37.78756358 70.1328125 37.765625 C71.93518623 37.72691536 71.93518623 37.72691536 73.77397156 37.68742371 C84.94600236 37.68378718 95.31767188 40.49427665 103.5078125 48.42578125 C123.6750379 71.7301306 110.34436201 119.65600016 110.08984375 139.25390625 C25.60984375 139.25390625 -58.87015625 139.25390625 -145.91015625 139.25390625 C-146.9788894 56.96145342 -146.9788894 56.96145342 -137.34765625 46.31640625 C-128.01613815 39.06208588 -117.43038763 37.51912745 -105.953125 37.765625 C-104.04966057 37.77623711 -104.04966057 37.77623711 -102.10774231 37.7870636 C-98.78136325 37.81008605 -95.45680186 37.85476155 -92.13092041 37.9105835 C-88.71829686 37.9623163 -85.30548321 37.98469113 -81.89257812 38.00976562 C-75.23128219 38.06452673 -68.57082376 38.14791891 -61.91015625 38.25390625 C-61.7608667 37.49110352 -61.61157715 36.72830078 -61.45776367 35.94238281 C-58.60895064 21.95614601 -53.4302409 11.8793007 -41.91015625 3.25390625 C-39.32283966 1.66569916 -36.73635741 0.35814732 -33.91015625 -0.74609375 C-32.60884766 -1.27976563 -32.60884766 -1.27976563 -31.28125 -1.82421875 C-21.84337984 -4.40514269 -8.81886275 -4.44817858 0 0 Z " fill="#CBD5DC" transform="translate(273.91015625,2.74609375)"/>
<path d="M0 0 C0.81923761 -0.00260775 1.63847523 -0.00521549 2.48253822 -0.00790226 C3.83208375 -0.00455618 3.83208375 -0.00455618 5.20889282 -0.0011425 C6.16489065 -0.00270249 7.12088848 -0.00426248 8.10585594 -0.00586975 C11.32332251 -0.00987237 14.54074227 -0.00669292 17.75820923 -0.00355339 C20.05917387 -0.00490776 22.36013829 -0.00668789 24.66110229 -0.00886345 C30.9212624 -0.01343357 37.18140607 -0.01164994 43.44156647 -0.00848436 C49.98249863 -0.0059586 56.52342936 -0.00829891 63.06436157 -0.00987053 C74.75456819 -0.01200854 86.44476787 -0.00869403 98.13497329 -0.00361119 C108.73920669 0.00085669 119.34342915 0.00008071 129.94766235 -0.00452995 C142.25537881 -0.00987876 154.56308828 -0.01187492 166.87080574 -0.00891769 C173.3883503 -0.00735591 179.90588732 -0.00715845 186.4234314 -0.01045418 C192.54975895 -0.01333549 198.67606575 -0.01135236 204.80239105 -0.00555992 C207.05548824 -0.00423373 209.30858715 -0.00462407 211.56168365 -0.00682259 C214.62802983 -0.00953957 217.69430879 -0.00614614 220.76065063 -0.0011425 C221.66034765 -0.00337322 222.56004467 -0.00560395 223.48700523 -0.00790226 C224.71586165 -0.00399064 224.71586165 -0.00399064 225.96954346 0 C226.67761454 0.00016235 227.38568562 0.0003247 228.11521339 0.00049198 C229.98477173 0.12584114 229.98477173 0.12584114 232.98477173 1.12584114 C232.98477173 1.78584114 232.98477173 2.44584114 232.98477173 3.12584114 C233.56227173 3.16709114 234.13977173 3.20834114 234.73477173 3.25084114 C238.33829595 4.65221167 239.28111509 6.71852787 240.98477173 10.12584114 C241.83536397 14.88915768 241.4697478 18.19053015 239.23477173 22.50084114 C236.33683082 25.8817722 234.20939287 27.71763409 229.98477173 29.12584114 C228.6463661 29.21790337 227.3038699 29.2566802 225.96230602 29.26006222 C224.73099965 29.26674898 224.73099965 29.26674898 223.47481841 29.27357084 C222.5732768 29.27338647 221.67173519 29.27320211 220.74287415 29.27301216 C219.78490946 29.27668885 218.82694478 29.28036554 217.83995086 29.28415364 C214.6156768 29.29520592 211.39143496 29.29903692 208.16714478 29.30284309 C205.86119484 29.30910649 203.55524591 29.31575318 201.2492981 29.32275581 C194.97448312 29.34017501 188.69967577 29.35071973 182.4248426 29.35896134 C178.50689355 29.36410872 174.58894689 29.37018452 170.67099953 29.37647247 C159.82355736 29.39334185 148.97611812 29.4079775 138.12866497 29.41522121 C135.31418036 29.4171311 132.49969576 29.41905144 129.68521118 29.42100716 C128.63592503 29.42173277 128.63592503 29.42173277 127.56544117 29.42247304 C116.23058064 29.43077549 104.89582557 29.45611689 93.5610111 29.48858783 C81.92401541 29.52165276 70.28707879 29.53933657 58.65003616 29.54286546 C52.11611977 29.54521959 45.58237012 29.55422764 39.04849815 29.57932663 C32.90320949 29.6025516 26.75819802 29.60686293 20.61287689 29.59656525 C18.35619245 29.59606845 16.09949461 29.60243107 13.84285164 29.61612129 C10.76410646 29.6337554 7.68636528 29.62677542 4.60762024 29.61358833 C3.7127708 29.62455758 2.81792136 29.63552683 1.89595526 29.64682847 C-3.56846162 29.59024599 -6.67175162 28.7544159 -11.01522827 25.12584114 C-13.91751245 21.8232419 -14.9308188 19.24426666 -15.26522827 14.81334114 C-14.90421056 9.48832994 -13.42991069 6.43442237 -9.51522827 2.81334114 C-6.27177278 0.62400869 -3.82655362 0.00087738 0 0 Z " fill="#9BABB6" transform="translate(143.01522827148438,354.87415885925293)"/>
<path d="M0 0 C0.96713507 -0.00538554 1.93427015 -0.01077108 2.93071234 -0.01631981 C6.17420305 -0.03063704 9.4172878 -0.02348624 12.66079712 -0.01637268 C14.98512603 -0.0220743 17.30945213 -0.02903774 19.6337738 -0.03717041 C25.94990225 -0.0551407 32.26589205 -0.05392602 38.5820384 -0.04822803 C44.51963001 -0.04475117 50.45720028 -0.05269484 56.39478727 -0.05958868 C68.87390207 -0.07331548 81.35295419 -0.06787503 93.83206756 -0.05640347 C105.24373559 -0.04647333 116.65524143 -0.05940756 128.06688444 -0.08333766 C139.78871205 -0.10773268 151.51046413 -0.1173354 163.23231661 -0.11068493 C169.81148763 -0.10731153 176.39052466 -0.10975594 182.96967697 -0.12693596 C189.15688066 -0.14238665 195.34377444 -0.13847 201.53096581 -0.11963081 C203.80173495 -0.11593966 206.07252696 -0.11906864 208.34327507 -0.1295166 C211.44348266 -0.14269181 214.54265912 -0.13120892 217.64282227 -0.11352539 C218.99035365 -0.1279329 218.99035365 -0.1279329 220.36510789 -0.14263147 C226.21478434 -0.07399308 229.65489559 0.97681377 234.44839478 4.38768005 C237.1926772 8.2827906 237.99133347 11.75673347 237.80386353 16.43455505 C237.2042248 19.72927334 235.53626977 21.83583284 233.44839478 24.38768005 C232.93757071 25.09406144 232.42674665 25.80044283 231.90044308 26.52822971 C228.13224386 29.38575063 224.57474466 28.93748203 219.96562195 28.8888855 C218.99384662 28.89441989 218.02207128 28.89995429 217.02084821 28.9056564 C213.75563502 28.91929942 210.49118137 28.90427346 207.22598267 28.88938904 C204.88870417 28.8931709 202.5514279 28.89866984 200.2141571 28.90576172 C193.85879417 28.91975159 187.50370089 28.90852125 181.14835286 28.8920505 C175.17730212 28.87962484 169.20627915 28.88380852 163.23521989 28.88718022 C151.40234341 28.89306036 139.5695733 28.87888186 127.73672485 28.85423279 C116.25458793 28.83031697 104.77259315 28.8232262 93.29043579 28.83372498 C80.78893475 28.84513531 68.28749948 28.84706242 55.78599924 28.83262688 C49.16778606 28.8250798 42.54962979 28.82119678 35.93141365 28.82713127 C29.70896527 28.83189795 23.48671407 28.82181194 17.26430321 28.80017662 C14.97818797 28.79460416 12.6920538 28.79414764 10.40593719 28.79912949 C7.28978852 28.80506929 4.17424531 28.79260169 1.05815125 28.77536011 C-0.30497827 28.78437518 -0.30497827 28.78437518 -1.69564575 28.79357237 C-6.48032048 28.74529908 -9.66863383 28.49407205 -13.55160522 25.38768005 C-16.87966132 21.68983995 -18.38295713 19.14162019 -18.86410522 14.13768005 C-18.46268791 9.32067225 -17.35035603 7.32105956 -14.55160522 3.38768005 C-10.00903879 -0.33700066 -5.59956882 -0.03727634 0 0 Z " fill="#99AAB5" transform="translate(146.55160522460938,298.61231994628906)"/>
<path d="M0 0 C1.43566539 -0.00445668 1.43566539 -0.00445668 2.90033412 -0.0090034 C6.12771762 -0.0177187 9.35506414 -0.01920104 12.5824585 -0.02069092 C14.8882607 -0.02531712 17.19406214 -0.03034151 19.49986267 -0.03573608 C25.77887218 -0.0488818 32.057871 -0.05530935 38.33689213 -0.05974674 C42.25701353 -0.06267417 46.17713197 -0.06677835 50.09725189 -0.07125092 C60.94894427 -0.08336338 71.8006334 -0.09374403 82.65233231 -0.09712601 C83.69454585 -0.09745536 83.69454585 -0.09745536 84.75781421 -0.09779136 C85.45429804 -0.09800964 86.15078186 -0.09822791 86.86837125 -0.09845281 C88.27974018 -0.09889627 89.6911091 -0.09934284 91.10247803 -0.09979248 C91.80256763 -0.10001391 92.50265724 -0.10023534 93.22396168 -0.10046348 C104.56533151 -0.10441061 115.90663705 -0.1218611 127.24798205 -0.145152 C138.88946577 -0.16886642 150.53091405 -0.18106994 162.17242217 -0.18249393 C168.7096742 -0.18354344 175.24683561 -0.18948226 181.78406525 -0.20731354 C187.93341127 -0.22375976 194.08259825 -0.22596644 200.23195839 -0.21717453 C202.49024951 -0.21640229 204.74854905 -0.22077139 207.00681877 -0.23063278 C210.08766301 -0.24329809 213.16793935 -0.23750469 216.2487793 -0.22705078 C217.14431086 -0.23510719 218.03984242 -0.24316359 218.9625113 -0.25146413 C224.01929517 -0.21128207 227.50033683 0.32823874 231.87835693 3.14044189 C235.27960577 6.81746766 236.71668011 9.42666752 237.19085693 14.45294189 C236.81348731 18.9059034 235.7458858 20.74468402 232.87835693 24.14044189 C227.6959055 28.50485756 223.70957381 28.71277693 217.23773193 28.64837646 C215.79081467 28.65773641 215.79081467 28.65773641 214.31466675 28.66728544 C211.08564744 28.68322746 207.85738172 28.67060609 204.62835693 28.65802002 C202.31210897 28.66344058 199.99586445 28.67056286 197.67962646 28.67926025 C191.39043738 28.69750419 185.1015106 28.69042146 178.81231689 28.67774391 C172.23276051 28.6676219 165.65322669 28.67700738 159.07366943 28.68328857 C147.3162499 28.69183338 135.55894078 28.67859738 123.80154037 28.65825123 C113.14479508 28.64038057 102.48822408 28.6434848 91.83148193 28.66192627 C79.45117069 28.68334039 67.07097056 28.69129614 54.69064331 28.67947721 C48.13891413 28.67323878 41.58730498 28.67241643 35.0355835 28.68562317 C28.8762618 28.6971715 22.71726949 28.68917404 16.5579834 28.66604614 C14.29647367 28.66075368 12.03493625 28.66228195 9.7734375 28.6710968 C6.68824379 28.68201421 3.60410809 28.6683338 0.51898193 28.64837646 C-0.82605911 28.6617608 -0.82605911 28.6617608 -2.19827271 28.67541552 C-7.6624267 28.60677208 -10.79249878 27.78624261 -15.12164307 24.14044189 C-17.92563229 20.81992835 -19.03980233 18.91792889 -19.49664307 14.57794189 C-18.94225015 9.49600683 -18.01264616 6.7120299 -14.12164307 3.39044189 C-9.32284867 -0.2086539 -5.83504652 -0.00559007 0 0 Z " fill="#99AAB5" transform="translate(147.12164306640625,241.85955810546875)"/>
<path d="M0 0 C1.16639511 -0.00983414 2.33279022 -0.01966827 3.53453064 -0.02980042 C4.81047592 -0.02013245 6.0864212 -0.01046448 7.40103149 -0.00050354 C8.76133279 -0.00428752 10.12163024 -0.00978822 11.48191833 -0.01687622 C15.17427911 -0.03084082 18.86617441 -0.01965323 22.55850935 -0.00316501 C26.42477246 0.01068892 30.29100863 0.00422481 34.1572876 0.0007019 C40.65218602 -0.0020006 47.14689969 0.01147654 53.64175415 0.03465271 C61.14444679 0.06124042 68.64683008 0.06301686 76.14955366 0.05126435 C83.37159953 0.04047241 90.5935338 0.04668616 97.81557083 0.06081963 C100.88641634 0.06656944 103.9571799 0.06650462 107.02802658 0.06175423 C110.64785345 0.05697032 114.26734316 0.06714418 117.88710594 0.08870888 C119.84444443 0.09689957 121.80182716 0.09043901 123.75917053 0.08351135 C134.54716853 0.17467858 134.54716853 0.17467858 139.28237915 3.50120544 C142.22503094 6.74826949 143.20038115 9.41473195 143.53237915 13.81370544 C143.19656071 18.76702751 141.91969281 22.01273849 138.21987915 25.37620544 C136.28237915 26.50120544 136.28237915 26.50120544 134.28237915 26.50120544 C134.28237915 27.16120544 134.28237915 27.82120544 134.28237915 28.50120544 C116.50617503 28.57128567 98.73000675 28.62418876 80.95369434 28.65664196 C72.69984634 28.67211104 64.44608417 28.69320131 56.19229126 28.7275238 C48.99830575 28.75742494 41.80438241 28.77678015 34.61033648 28.78347093 C30.801103 28.78738199 26.99204735 28.79657427 23.18287086 28.81839561 C19.5968195 28.83877214 16.01101908 28.84503695 12.42491531 28.84052849 C10.48280384 28.84174611 8.54071964 28.85788219 6.59867859 28.87446594 C5.43906616 28.87034195 4.27945374 28.86621796 3.08470154 28.86196899 C1.57618732 28.86611706 1.57618732 28.86611706 0.03719807 28.87034893 C-5.54274561 28.12264103 -9.06156505 24.56348967 -12.71762085 20.50120544 C-13.92405651 16.88189846 -14.04030644 14.3088954 -13.71762085 10.50120544 C-10.33318672 4.33670043 -7.32137611 0.00151176 0 0 Z " fill="#9AABB6" transform="translate(240.71762084960938,412.49879455566406)"/>
<path d="M0 0 C1.92546661 -0.00788544 1.92546661 -0.00788544 3.88983154 -0.01593018 C7.40038613 -0.02957226 10.91067532 -0.02431705 14.42123437 -0.01479292 C18.10457569 -0.00717526 21.78789493 -0.01424822 25.47123718 -0.01895142 C31.65908873 -0.02440491 37.84683276 -0.01723022 44.03466797 -0.00292969 C51.17152178 0.01337446 58.30811815 0.00812307 65.44496566 -0.0084089 C71.58617541 -0.0220613 77.72730803 -0.02392451 83.86852807 -0.0160929 C87.53021118 -0.01143414 91.19177368 -0.01074123 94.85344887 -0.02070236 C98.94151445 -0.03104683 103.02914283 -0.01667364 107.1171875 0 C108.31905197 -0.00607269 109.52091644 -0.01214539 110.75920105 -0.0184021 C117.75777931 0.03432782 125.32424427 0.09664338 130.95137501 4.81147194 C134.07972716 8.60188872 133.5393109 14.7178764 133.25268555 19.38818359 C131.83374396 23.00497514 129.75714074 25.43140955 126.43146229 27.54640961 C123.70542667 28.59961796 121.50285975 28.65176136 118.57975769 28.66906738 C116.84495399 28.68619781 116.84495399 28.68619781 115.07510376 28.70367432 C113.81008026 28.70591003 112.54505676 28.70814575 111.24169922 28.71044922 C109.89287272 28.7197103 108.54405143 28.72976027 107.19523621 28.74053955 C103.53396475 28.76674589 99.87276657 28.77966912 96.21141601 28.78856087 C93.92247712 28.79442892 91.63355813 28.80263975 89.34462929 28.81156921 C82.17867477 28.83890779 75.01276588 28.85824676 67.84676284 28.865973 C59.58262112 28.87493295 51.31914125 28.91002598 43.05520076 28.96797419 C36.66184396 29.01124499 30.26867312 29.03138348 23.87517148 29.03405523 C20.05904602 29.0361487 16.24354317 29.04790483 12.42757225 29.08369446 C8.83627306 29.11672264 5.24606221 29.12093748 1.65466499 29.10341644 C-0.28468635 29.10114843 -2.22400207 29.12853458 -4.16314697 29.15692139 C-10.63184303 29.09507537 -14.79900318 28.74474848 -19.49181652 24.06624603 C-22.30553257 20.30551406 -23.20233589 17.25640158 -23.05981445 12.48193359 C-22.49067096 8.66867216 -21.06386411 6.49723708 -18.74731445 3.38818359 C-13.0215746 -0.68982205 -6.73616672 -0.0338649 0 0 Z " fill="#99AAB5" transform="translate(150.747314453125,184.61181640625)"/>
<path d="M0 0 C0.91265625 -0.00257812 1.8253125 -0.00515625 2.765625 -0.0078125 C9.91042186 0.31014966 13.84945131 1.29082436 19 6.375 C19.7734375 7.09236328 19.7734375 7.09236328 20.5625 7.82421875 C26.67732943 13.63961065 29.72922802 19.89171314 30.0625 28.375 C29.93301011 33.73958099 28.88995463 39.19341731 26.75 44.125 C25.76 44.455 24.77 44.785 23.75 45.125 C22.56233278 46.57659327 21.3765205 48.02981569 20.20703125 49.49609375 C15.77512772 54.45079556 11.17283537 56.90580365 4.578125 57.328125 C-10.33655977 57.52351388 -10.33655977 57.52351388 -16.625 52.0625 C-23.9061292 44.96806642 -28.08654647 39.17308861 -28.625 28.8125 C-28.35787142 20.64398907 -25.55606852 14.03120854 -19.9375 8.125 C-16.22301398 4.69812657 -13.04582203 2.65966305 -8.25 1.125 C-5.22636561 0.11712187 -3.16072284 -0.00882883 0 0 Z " fill="#2D3337" transform="translate(255.25,13.875)"/>
<path d="M0 0 C0.66 0.33 1.32 0.66 2 1 C0.92492371 2.29854721 -0.16043736 3.58858361 -1.25 4.875 C-1.85328125 5.59429688 -2.4565625 6.31359375 -3.078125 7.0546875 C-4.97087634 8.97052118 -6.53657727 9.96449045 -9 11 C-7.59155282 7.78475695 -5.89655214 5.67816132 -3.375 3.25 C-2.74335938 2.63640625 -2.11171875 2.0228125 -1.4609375 1.390625 C-0.73777344 0.70226562 -0.73777344 0.70226562 0 0 Z " fill="#4B5257" transform="translate(240,18)"/>
<path d="M0 0 C0.66 0.33 1.32 0.66 2 1 C1.0479279 2.00596297 0.08812654 3.00461563 -0.875 4 C-1.40867187 4.556875 -1.94234375 5.11375 -2.4921875 5.6875 C-4 7 -4 7 -6 7 C-4.60667426 3.63279613 -3.0210714 2.0140476 0 0 Z " fill="#F2E0DB" transform="translate(107,115)"/>
<path d="M0 0 C0.66 0.33 1.32 0.66 2 1 C-0.31 3.31 -2.62 5.62 -5 8 C-5 5 -5 5 -2.5 2.3125 C-1.675 1.549375 -0.85 0.78625 0 0 Z " fill="#A9B7C1" transform="translate(135,300)"/>
</svg>
